<svg xmlns="http://www.w3.org/2000/svg" width="1440" height="998.125" viewBox="0 0 1440 998.125">
  <metadata><?xpacket begin="﻿" id="W5M0MpCehiHzreSzNTczkc9d"?>
<x:xmpmeta xmlns:x="adobe:ns:meta/" x:xmptk="Adobe XMP Core 5.6-c138 79.159824, 2016/09/14-01:09:01        ">
   <rdf:RDF xmlns:rdf="http://www.w3.org/1999/02/22-rdf-syntax-ns#">
      <rdf:Description rdf:about=""/>
   </rdf:RDF>
</x:xmpmeta>
                                                                                                    
                                                                                                    
                                                                                                    
                                                                                                    
                                                                                                    
                                                                                                    
                                                                                                    
                                                                                                    
                                                                                                    
                                                                                                    
                                                                                                    
                                                                                                    
                                                                                                    
                                                                                                    
                                                                                                    
                                                                                                    
                                                                                                    
                                                                                                    
                                                                                                    
                                                                                                    
                           
<?xpacket end="w"?></metadata>
<defs>
    <style>
      .cls-1 {
        fill: #fde6da;
        fill-rule: evenodd;
      }
    </style>
  </defs>
  <path class="cls-1" d="M1081.18-775.691c-20.37,6.519-35.89,22.008-54.45,31.8-12.36,6.522-25.22,11.009-37.811,16.624-5.046,2.252-11.294,4.64-15.846,7.769-5.429,3.73-9.034,8.779-14.77,12.464-7.8,5.006-14.48,10.155-22.353,15.117-7.642,4.823-16.221,10.253-23.239,15.694-6.1,4.713-10.209,11.045-18.092,14-2.5.931-5.147,0.126-8.151,1.237a39.022,39.022,0,0,0-4.175,2.349c-1.906.911-3.988,2.208-5.836,3.209-7.681,4.184-4.966,3.358-9.853,9.894-4.825,6.48-6.218,4.747-12.672,6.045-3.268.654-6.273,2.119-10.15,3.7-6.34,2.606-6.709,2.937-12.017,7.127-3.227,2.534-9.3,7-13.381,8.481-5.847,2.124-5.273-1.1-9.617-.775-5.927.455-11.869,5.8-16.9,9.078-7.293,4.748-15.187,8.952-22.588,13.621-15.082,9.521-29.706,19.547-44.913,28.884C691.488-549.2,656.4-532.414,623.827-511.786c-22.549,14.271-47.055,17.244-69.565,31.582-25.634,16.34-56.671,37.062-84.448,49.625-6.031,2.722-14.36,3.533-19.708,7.07-5.206,3.44-8.28,8.664-13.463,12.455-11.732,8.579-20.9,8.975-32.774,14.221-13.019,5.759-25.64,16.287-37.8,23.441-31.048,18.267-56.2,38.885-85.083,59.3-13.373,9.455-24.793,13.941-39.2,20.7-23.847,11.192-45.66,26.545-68.848,39-10.254,5.513-13.767,11.766-22.28,17.569-5.724,3.9-12.106,5.8-17.4,9.063s-12.985,9.836-20.315,14.068c-7.717,4.455-14.135,8.856-21.895,10.415-9,1.811-8.389-1.545-18.98,4.149-5.679,3.052-7.773,5.448-12.257,8.962-10.4,8.156-24.418,20.581-36.857,26.912-5.4,2.745-9.776,2.9-14.889,5.525-6.444,3.3-12.379,9.893-18.594,13.892-19.731,12.686-41.461,21.867-61.888,33.348C-99.57-95.238-127.1-80.551-153.278-63.668c-40.49,26.113-84.5,47.29-125.1,73.148-33.081,21.07-67.6,47.555-104.24,64.309-43,19.669-76.079,36.515-118.173,63.181-23.088,14.629-43.81,22.3-64.9,31.781L-86.861,998.114a88.586,88.586,0,0,0,11.626-6.963c3.672-2.776,4.944-5.746,8.333-8.355,9.457-7.261,28.911-11.711,35.744-21.771,2.2-3.232.115-3.161,4.37-5.792,3.268-2.034,4.386-1.573,7.582-2.8s6.055-3.789,9.177-5.181c3.238-1.439,5.819-2.485,9.247-4.242,5.5-2.812,12.635-4.989,17.426-8.36,6.139-4.3,10.019-10.34,15.889-14.858,16.8-12.9,39.81-20.664,58.681-30.628,24.028-12.7,47.565-26.423,70.9-40.4,46.711-28,92.787-57.271,141.089-82.418,7.621-3.965,17.192-9.089,24.994-12.677,6.3-2.9,16.533-4.938,20.628-7.156,7.837-4.27,16.04-10.362,23.4-15.467,2.425-1.683,5.1-2.518,7.1-4.57,2.074-2.129,2.073-4.868,4.933-6.917,2.373-1.71,6.4-3.082,9.09-4.643,2.872-1.663,5.808-3.519,8.725-5.038,5.763-2.982,11.218-5.569,17.183-8.782,3.231-1.741,5.645-2.323,8.762-3.626,5.147-2.131,5.329-4.39,9.211-6.835,2.006-1.267,4.932-1.123,7.305-2.961,2.222-1.722,2.712-3.924,5.089-5.83a85.761,85.761,0,0,1,14.652-8.908c3.49-1.585,7.331-2.173,10.641-3.412,17.206-6.466,31.482-17.127,46.7-27.428,26.161-17.69,45.086-36.105,75.345-48.174,19.393-7.743,45.192-14.057,61.515-28.121,6.844-5.893,16.08-7.417,23.39-13.278,6.97-5.588,9.421-11.9,17.635-17,3.2-1.97,7.462-4.9,10.869-5.991,5.76-1.843,10.688-1.767,17.043-4.8,6.319-3.011,9.268-6.868,14.23-10.546,5.672-4.2,13.658-7.852,19.956-10.746,9.377-4.318,18.958-7.354,28.239-11.99,10.108-5.056,19.228-12.533,28.251-19.07,20.72-15.015,41.232-30.227,62.417-44.76,12.474-8.553,31.565-23.889,45.631-29.18,7.84-2.962,14.315-2.079,22.874-5.315,34.373-13.013,64.5-40.472,97.065-57.507,6.81,9.113,34.37-18.312,43.34-23.033,6.41-3.376,15.09-6.388,22.91-10.891,9.77-5.623,20.32-10.848,28.57-18.231,10.26,3.191,23.86-19.1,35.28-24.72,7.88-3.871,14.93-5.021,22.75-9.972,5.05-3.211,10.2-7.982,14.45-10.386,9.12-5.142,26.2-13.191,36.22-17.44,7.5-3.167,11.11-1.7,18.48-4.515,8.37-3.2,14.23-10.683,21.07-15.378a212.6,212.6,0,0,1,35.97-19.282c8.37-3.5,15.01-4.911,23.21-10.242,8.68-5.667,12.42-11.165,20.87-16.661,5.83-3.788,13.1-5,18.95-9.261,8.03-5.839,9.21-11.392,16.78-17.435,11.35-9.048,27.57-13.422,38.35-23.382,14.78,2.618,18.71-12.79,27.2-20.173,8.81-7.658,16.65-8.163,25.56-10.467a80.993,80.993,0,0,0,28.81-14.807c3.82-3.09,4.73-6.351,8.18-9.2,3.08-2.524,7.52-3.522,10.9-5.709,2.64-1.715,4.32-3.9,6.54-5.511,3.7-2.688,6.89-2.734,10.67-4.42L1091.5-778.924C1088.75-777.906,1085.74-777.157,1081.18-775.691Z"/>
</svg>
