<svg xmlns="http://www.w3.org/2000/svg" width="1439" height="1068" viewBox="0 0 1439 1068">
  <metadata><?xpacket begin="﻿" id="W5M0MpCehiHzreSzNTczkc9d"?>
<x:xmpmeta xmlns:x="adobe:ns:meta/" x:xmptk="Adobe XMP Core 5.6-c138 79.159824, 2016/09/14-01:09:01        ">
   <rdf:RDF xmlns:rdf="http://www.w3.org/1999/02/22-rdf-syntax-ns#">
      <rdf:Description rdf:about=""/>
   </rdf:RDF>
</x:xmpmeta>
                                                                                                    
                                                                                                    
                                                                                                    
                                                                                                    
                                                                                                    
                                                                                                    
                                                                                                    
                                                                                                    
                                                                                                    
                                                                                                    
                                                                                                    
                                                                                                    
                                                                                                    
                                                                                                    
                                                                                                    
                                                                                                    
                                                                                                    
                                                                                                    
                                                                                                    
                                                                                                    
                           
<?xpacket end="w"?></metadata>
<defs>
    <style>
      .cls-1 {
        fill: #c9d1c3;
        fill-rule: evenodd;
      }
    </style>
  </defs>
  <path id="Shape_1_copy_2" data-name="Shape 1 copy 2" class="cls-1" d="M1430.98,2990.91c-15.89-6.97-31.99,1.71-47.93.49-10.61-.82-20.78-4.73-31.2-6.93-4.18-.88-9.2-2.51-13.39-1.84-4.99.79-9.28,4.74-14.46,5.24-7.04.67-13.39,2.39-20.45,2.94-6.87.55-14.58,1.19-21.27,3.03-5.8,1.59-10.91,6.86-17.22,4.73-2-.68-3.44-3.79-5.84-4.62a14.315,14.315,0,0,0-3.64-.08,50.365,50.365,0,0,0-5.06-.21c-6.65-.34-4.55.65-10.25,5.59-5.64,4.92-5.89,1.54-10.64-1.69-2.4-1.64-4.93-2-8.08-2.87-5.17-1.41-5.54-1.25-10.62.25-3.09.89-8.79,2.17-12.03,1-4.66-1.66-3.06-5.5-6.04-8.42-4.07-3.95-10.02-1.4-14.57-.9-6.61.72-13.4,0.24-20.05,0.77-13.55,1.08-26.98,3.19-40.54,3.93-29.31,1.6-58.79-3.02-88.07-.6-20.27,1.66-37.526-13.21-57.792-11.42-23.084,2.05-51.389,5.78-74.448,1.16-5-1.02-10.795-6.34-15.66-5.74-4.734.58-8.743,5.17-13.6,6.23-10.983,2.4-17.167-4.11-26.978-6.25-10.758-2.34-23.068,1.97-33.793,2.15-27.379.45-51.774,8.56-78.543,13.54-12.4,2.31-21.618-.5-33.669-2.57-19.951-3.43-40.144.24-60.14-1-8.846-.54-13.534,5.08-21.344,6.26-5.25.8-10.172-1.58-14.9-1.3s-12.285,3.11-18.718,3.11c-6.773,0-12.67.92-18.37-2.96-6.61-4.51-4.935-8.51-14.071-9.07-4.9-.3-7.187,1.28-11.474,2.51-9.947,2.86-23.895,8.63-34.489,7.5-4.6-.5-7.539-3.65-11.9-4.09-5.5-.56-11.908,3.66-17.519,4.2-17.809,1.73-35.6-2.75-53.411-3.17-23.67-.56-47.376-2.17-71.021.19-36.577,3.64-73.6-2-110.149,1.22-29.783,2.62-62.572,11.35-93.056,5.49-35.778-6.86-63.956-9.86-101.8-6.71-20.758,1.72-37.314-3.99-54.8-7.58V4039.19c3.6,0.27,7.211.44,10.3-.34,3.472-.87,5.438-3.85,8.661-4.71,8.985-2.4,23.481,6.63,31.8-1.51,2.678-2.61,1.278-4.12,5.078-4.35,2.924-.2,3.485,1.27,6.057,2.09,2.576,0.8,5.426-.39,8.01.16a65.84,65.84,0,0,0,7.7,1.46c4.689,0.48,10.213,3.06,14.648,2.26,5.676-1.01,10.524-6.06,16.106-7.57,15.962-4.25,34.058,3.09,50.267,4.33,20.643,1.56,41.351,1.38,62.023.71,41.389-1.37,82.843-4.92,124.2-1.27,6.523,0.57,14.771,1.11,21.27,2.33,5.249,0.99,12.76,6.13,16.3,6.32,6.781,0.34,14.5-1.46,21.282-2.6,2.236-.38,4.312.57,6.409-0.63,2.174-1.24,3.214-4.88,5.876-5.41,2.211-.46,5.385.82,7.748,0.8,2.522,0,5.16-.22,7.658,0,4.926,0.46,9.5,1.21,14.648,1.52,2.788,0.16,4.6,1.24,7.145,1.9,4.2,1.12,5.177-1.74,8.661-2.01,1.8-.15,3.674,2.29,5.934,1.67,2.117-.59,3.276-3.14,5.565-3.85a32.48,32.48,0,0,1,13.031-.6c2.9,0.57,5.651,2.74,8.3,3.64,13.784,4.61,27.233,1.39,41.168-.62,23.944-3.44,43.4-13.41,67.9-6.22,15.709,4.6,35.091,16.02,51.18,9.84,6.745-2.58,13.4,2.49,20.443.3,6.711-2.08,10.725-8.6,18.067-9.06,2.854-.17,6.773-0.79,9.431.37,4.492,1.98,7.707,5.86,13.043,6.71,5.3,0.85,8.71-2.02,13.374-3.1,5.328-1.22,11.974.05,17.22,1.03,7.813,1.46,15.274,4.78,23.145,5.75,8.575,1.03,17.42-1.91,25.844-3.68,19.345-4.06,38.628-8.54,58.1-11.61,11.462-1.79,29.857-7.54,41.127-3.77,6.286,2.08,10.213,8.23,17.076,10.5,27.572,9.1,57.835-4.3,85.751-1.95,1.015,17.36,29.578,2.04,37.278,2.65,5.5,0.43,12.37,3.1,19.22,3.11,8.57,0.02,17.5,1.17,25.74-2.31,5.54,12.13,22.96-7.08,32.62-5.79,6.65,0.9,11.73,4.78,18.76,4.21,4.54-.4,9.75-2.79,13.46-2.72,7.96,0.16,22.26,2.57,30.47,4.62,6.14,1.54,7.96,6.28,13.88,8.19,6.72,2.16,13.43-3.28,19.71-4.28,10-1.59,21.85-.4,31.01,1.98,6.84,1.78,11.74,5,19.17,4.2,7.87-.87,12.42-5.32,20.06-6.14,5.28-.56,10.53,3.41,16,2.24,7.5-1.6,10.39-8.09,17.67-10.31,10.91-3.32,23.25,3.32,34.13-1.65,8.74,14.84,17.18-2.65,25.57-5.95,8.71-3.42,14.06,1.93,20.8,5.71a31.753,31.753,0,0,0,24.6,2.43c3.69-1.17,5.53-4.81,8.88-5.95,2.98-1,6.28,1.09,9.34.77,2.39-.25,4.33-1.87,6.4-2.31,3.46-.73,5.57,1.66,8.7,2.32V2994.54C1436.8,2993.78,1434.54,2992.47,1430.98,2990.91Z" transform="translate(0 -2974)"/>
</svg>
