<svg xmlns="http://www.w3.org/2000/svg" width="1440" height="1976" viewBox="0 0 1440 1976">
  <metadata><?xpacket begin="﻿" id="W5M0MpCehiHzreSzNTczkc9d"?>
<x:xmpmeta xmlns:x="adobe:ns:meta/" x:xmptk="Adobe XMP Core 5.6-c138 79.159824, 2016/09/14-01:09:01        ">
   <rdf:RDF xmlns:rdf="http://www.w3.org/1999/02/22-rdf-syntax-ns#">
      <rdf:Description rdf:about=""/>
   </rdf:RDF>
</x:xmpmeta>
                                                                                                    
                                                                                                    
                                                                                                    
                                                                                                    
                                                                                                    
                                                                                                    
                                                                                                    
                                                                                                    
                                                                                                    
                                                                                                    
                                                                                                    
                                                                                                    
                                                                                                    
                                                                                                    
                                                                                                    
                                                                                                    
                                                                                                    
                                                                                                    
                                                                                                    
                                                                                                    
                           
<?xpacket end="w"?></metadata>
<defs>
    <style>
      .cls-1 {
        fill: #c9d1c3;
        fill-rule: evenodd;
      }
    </style>
  </defs>
  <path id="Shape_1_copy" data-name="Shape 1 copy" class="cls-1" d="M1431.97,67.294c-15.89-12.9-32.01,3.165-47.95.9-10.63-1.513-20.8-8.75-31.23-12.822-4.18-1.628-9.21-4.63-13.4-3.4-4.99,1.466-9.29,8.773-14.47,9.693-7.04,1.233-13.4,4.421-20.47,5.445-6.87,1.012-14.58,2.187-21.27,5.608-5.82,2.932-10.93,12.682-17.24,8.738-2-1.257-3.44-7-5.84-8.54a8.069,8.069,0,0,0-3.65-.151c-1.6-.466-3.46-0.233-5.06-0.4-6.65-.617-4.55,1.21-10.25,10.355-5.65,9.1-5.91,2.851-10.65-3.13-2.4-3.037-4.94-3.7-8.09-5.317-5.17-2.595-5.54-2.3-10.63.466-3.09,1.652-8.79,4.026-12.04,1.862-4.66-3.084-3.06-10.193-6.04-15.58-4.08-7.306-10.02-2.595-14.58-1.675-6.61,1.326-13.41.454-20.06,1.431-13.56,2-27,5.9-40.57,7.272-29.33,2.955-58.83-5.6-88.13-1.117C1010.07,70.016,992.8,42.5,972.516,45.8c-23.1,3.794-51.424,10.694-74.5,2.141-5.007-1.873-10.8-11.717-15.67-10.611-4.737,1.07-8.749,9.564-13.605,11.531-10.99,4.444-17.178-7.609-27-11.577-10.765-4.329-23.083,3.653-33.815,3.979-27.4.838-51.81,15.847-78.6,25.062-12.4,4.27-21.633-.919-33.693-4.759-19.965-6.341-40.172.454-60.181-1.85-8.852-1-13.544,9.4-21.359,11.589-5.253,1.466-10.179-2.932-14.908-2.42-4.724.536-12.293,5.76-18.731,5.76-6.778,0-12.679,1.71-18.383-5.48C555.463,60.836,557.139,53.436,548,52.4c-4.9-.559-7.192,2.361-11.483,4.642C526.561,62.337,512.6,73.007,502,70.912c-4.6-.919-7.544-6.749-11.908-7.563-5.5-1.036-11.917,6.76-17.531,7.773-17.822,3.188-35.627-5.1-53.449-5.864-23.685-1.047-47.408-4.026-71.069.337-36.6,6.737-73.647-3.688-110.225,2.269-29.8,4.852-62.615,20.99-93.12,10.158-35.8-12.694-64-18.244-101.869-12.426-20.772,3.2-37.34-7.365-54.838-14.009V2006.8c3.6,0.5,7.216.82,10.306-.61,3.475-1.62,5.442-7.12,8.667-8.73,8.991-4.43,23.5,12.26,31.824-2.79,2.68-4.83,1.279-7.62,5.081-8.05,2.926-.36,3.487,2.36,6.061,3.87,2.578,1.49,5.43-.72,8.015.29,2.68,1.06,4.778,2.15,7.7,2.7,4.692,0.9,10.22,5.68,14.658,4.19,5.68-1.86,10.532-11.22,16.117-14,15.974-7.87,34.082,5.72,50.3,8.01,20.657,2.88,41.38,2.56,62.066,1.31,41.417-2.53,82.9-9.11,124.28-2.36,6.528,1.07,14.782,2.06,21.285,4.32,5.253,1.82,12.769,11.34,16.309,11.7,6.786,0.63,14.507-2.71,21.3-4.81,2.237-.7,4.315,1.04,6.413-1.17,2.176-2.29,3.217-9.04,5.881-10.02,2.212-.83,5.388,1.52,7.753,1.49,2.524-.01,5.163-0.4,7.663,0,4.93,0.85,9.507,2.24,14.658,2.81,2.791,0.3,4.6,2.3,7.151,3.52,4.2,2.07,5.179-3.23,8.667-3.73,1.8-.27,3.675,4.25,5.937,3.09,2.119-1.08,3.279-5.8,5.569-7.12a18.226,18.226,0,0,1,13.04-1.1c2.9,1.06,5.655,5.07,8.306,6.72,13.794,8.54,27.251,2.59,41.2-1.14,23.961-6.36,43.429-24.8,67.951-11.51,15.72,8.51,35.115,29.64,51.215,18.21,6.75-4.78,13.413,4.6,20.457.56,6.716-3.85,10.732-15.91,18.08-16.78,2.856-.3,6.778-1.45,9.437.7,4.5,3.66,7.712,10.85,13.052,12.42,5.307,1.57,8.716-3.74,13.384-5.74,5.331-2.27,11.982.08,17.231,1.91,7.819,2.7,15.285,8.84,23.161,10.62,8.581,1.92,17.433-3.52,25.862-6.79,19.358-7.52,38.655-15.82,58.137-21.48,11.469-3.33,29.877-13.95,41.155-6.98,6.29,3.85,10.22,15.23,17.088,19.43,27.591,16.82,57.874-7.97,85.809-3.61,1.016,32.11,29.6,3.77,37.3,4.89,5.51,0.8,12.38,5.73,19.24,5.76,8.57,0.04,17.51,2.17,25.75-4.27,5.55,22.44,22.98-13.1,32.64-10.72,6.66,1.67,11.74,8.86,18.78,7.79,4.54-.74,9.75-5.16,13.47-5.03,7.96,0.3,22.27,4.76,30.49,8.55,6.14,2.85,7.96,11.61,13.89,15.15,6.73,4,13.44-6.07,19.73-7.91,10-2.96,21.85-.75,31.02,3.65,6.85,3.29,11.76,9.25,19.18,7.77,7.88-1.6,12.43-9.83,20.09-11.35,5.28-1.04,10.53,6.3,16,4.14,7.51-2.97,10.4-14.96,17.69-19.07,10.92-6.14,23.26,6.13,34.15-3.06,8.74,27.46,17.19-4.9,25.59-11.01,8.71-6.33,14.07,3.58,20.81,10.57,7.41,7.65,16.7,9.17,24.62,4.5,3.69-2.18,5.53-8.91,8.88-11.02,2.99-1.84,6.29,2.01,9.35,1.43,2.39-.46,4.33-3.45,6.4-4.27,3.46-1.36,5.58,3.06,8.71,4.28V74.007C1437.8,72.6,1435.53,70.167,1431.97,67.294Z" transform="translate(0 -36)"/>
</svg>
